<svg width="28" height="28" viewBox="0 0 28 28" fill="none" xmlns="http://www.w3.org/2000/svg">
<path d="M25.7373 20.9998L13.9991 9.24503C13.6659 8.92667 13.2227 8.74902 12.7619 8.74902C12.301 8.74902 11.8579 8.92667 11.5246 9.24503L9.26188 11.5078C8.93396 11.8362 8.74979 12.2814 8.74979 12.7455C8.74979 13.2096 8.93396 13.6547 9.26188 13.9832L20.9991 25.7379C21.3275 26.0655 21.7725 26.2496 22.2364 26.2496C22.7003 26.2496 23.1452 26.0655 23.4736 25.7379L25.7373 23.4743C26.0653 23.1461 26.2496 22.7011 26.2496 22.237C26.2496 21.773 26.0653 21.3279 25.7373 20.9998ZM10.4991 12.745L12.7619 10.4832L15.8244 13.5457L13.5608 15.8093L10.4983 12.7468L10.4991 12.745ZM22.2364 24.4998L14.7989 17.0457L17.0616 14.782L24.5 22.237L22.2364 24.4998Z" fill="#3900B3"/>
<path d="M6.125 17.5L7.875 15.75L9.625 17.5L7.875 19.25L6.125 17.5Z" fill="#3900B3"/>
<path d="M15.75 7.875L17.5 6.125L19.25 7.875L17.5 9.625L15.75 7.875Z" fill="#3900B3"/>
<path d="M6.125 7.875L7.875 6.125L9.625 7.875L7.875 9.625L6.125 7.875Z" fill="#3900B3"/>
<path d="M9.625 1.75H1.75V9.625H3.5V3.5H9.625V1.75Z" fill="#3900B3"/>
</svg>
