<svg width="24" height="24" viewBox="0 0 24 24" fill="none" xmlns="http://www.w3.org/2000/svg">
<path d="M20.25 14.25C21.4905 14.25 22.5 13.2405 22.5 12C22.5 10.7595 21.4905 9.75 20.25 9.75C19.7862 9.75138 19.3342 9.89631 18.956 10.1649C18.5779 10.4335 18.2921 10.8125 18.138 11.25H13.8105L19.2855 5.775C19.5795 5.91525 19.9035 6 20.25 6C21.4905 6 22.5 4.9905 22.5 3.75C22.5 2.5095 21.4905 1.5 20.25 1.5C19.0095 1.5 18 2.5095 18 3.75C18 4.0965 18.0855 4.4205 18.225 4.71375L12 10.9395V6C12 5.1735 12.6728 4.5 13.5 4.5H15V3H13.5C12.6 3 11.8005 3.40725 11.25 4.0365C10.9711 3.71273 10.6258 3.45264 10.2376 3.27382C9.84946 3.095 9.42741 3.00162 9.00003 3H8.25003C4.52853 3 1.50003 6.02775 1.50003 9.75V14.25C1.50003 17.9722 4.52853 21 8.25003 21H9.00003C9.90003 21 10.6995 20.5935 11.25 19.9635C11.8005 20.5935 12.6 21 13.5 21H15V19.5H13.5C12.6728 19.5 12 18.8272 12 18V13.0605L18.225 19.2863C18.0848 19.5795 18 19.9035 18 20.25C18 21.4912 19.0095 22.5 20.25 22.5C21.4905 22.5 22.5 21.4912 22.5 20.25C22.5 19.0088 21.4905 18 20.25 18C19.9159 18.0018 19.5864 18.0789 19.2863 18.2257L13.8105 12.7507H18.138C18.2922 13.1881 18.578 13.567 18.9562 13.8354C19.3343 14.1039 19.7863 14.2487 20.25 14.25ZM20.25 11.25C20.4489 11.25 20.6397 11.329 20.7804 11.4697C20.921 11.6103 21 11.8011 21 12C21 12.1989 20.921 12.3897 20.7804 12.5303C20.6397 12.671 20.4489 12.75 20.25 12.75C20.0511 12.75 19.8604 12.671 19.7197 12.5303C19.579 12.3897 19.5 12.1989 19.5 12C19.5 11.8011 19.579 11.6103 19.7197 11.4697C19.8604 11.329 20.0511 11.25 20.25 11.25ZM20.25 3C20.4431 3.00864 20.6255 3.09143 20.7591 3.23114C20.8927 3.37084 20.9672 3.5567 20.9672 3.75C20.9672 3.9433 20.8927 4.12916 20.7591 4.26886C20.6255 4.40857 20.4431 4.49136 20.25 4.5C20.0511 4.5 19.8604 4.42098 19.7197 4.28033C19.579 4.13968 19.5 3.94891 19.5 3.75C19.5 3.55109 19.579 3.36032 19.7197 3.21967C19.8604 3.07902 20.0511 3 20.25 3ZM10.5 9H9.00003V10.5H10.5V13.5H9.00003C7.75953 13.5 6.75003 14.5095 6.75003 15.75V17.25H8.25003V15.75C8.25003 15.5511 8.32905 15.3603 8.4697 15.2197C8.61035 15.079 8.80112 15 9.00003 15H10.5V18C10.5 18.8272 9.82728 19.5 9.00003 19.5H8.25003C5.61003 19.5 3.42603 17.5403 3.06003 15H4.50003V13.5H3.00003V10.5H5.25003C6.49053 10.5 7.50003 9.4905 7.50003 8.25V6.75H6.00003V8.25C6.00003 8.44891 5.92101 8.63968 5.78036 8.78033C5.63971 8.92098 5.44894 9 5.25003 9H3.06003C3.42603 6.45975 5.61003 4.5 8.25003 4.5H9.00003C9.82728 4.5 10.5 5.1735 10.5 6V9ZM21 20.25C20.9914 20.4431 20.9086 20.6254 20.7689 20.759C20.6292 20.8926 20.4433 20.9672 20.25 20.9672C20.0567 20.9672 19.8709 20.8926 19.7312 20.759C19.5915 20.6254 19.5087 20.4431 19.5 20.25C19.5 19.8368 19.8368 19.5 20.25 19.5C20.6633 19.5 21 19.8368 21 20.25Z" fill="white"/>
</svg>
