<svg width="60" height="60" viewBox="0 0 60 60" fill="none" xmlns="http://www.w3.org/2000/svg">
<path d="M50.6251 35.625C53.7263 35.625 56.2501 33.1012 56.2501 30C56.2501 26.8988 53.7263 24.375 50.6251 24.375C49.4655 24.3784 48.3354 24.7408 47.39 25.4122C46.4446 26.0837 45.7303 27.0313 45.3451 28.125H34.5263L48.2138 14.4375C48.9488 14.7881 49.7588 15 50.6251 15C53.7263 15 56.2501 12.4762 56.2501 9.375C56.2501 6.27375 53.7263 3.75 50.6251 3.75C47.5238 3.75 45.0001 6.27375 45.0001 9.375C45.0001 10.2413 45.2138 11.0512 45.5626 11.7844L30.0001 27.3488V15C30.0001 12.9338 31.6819 11.25 33.7501 11.25H37.5001V7.5H33.7501C31.5001 7.5 29.5013 8.51813 28.1251 10.0912C27.4276 9.28182 26.5645 8.6316 25.5941 8.18455C24.6236 7.73751 23.5685 7.50406 22.5001 7.5H20.6251C11.3213 7.5 3.75006 15.0694 3.75006 24.375V35.625C3.75006 44.9306 11.3213 52.5 20.6251 52.5H22.5001C24.7501 52.5 26.7488 51.4837 28.1251 49.9087C29.5013 51.4837 31.5001 52.5 33.7501 52.5H37.5001V48.75H33.7501C31.6819 48.75 30.0001 47.0681 30.0001 45V32.6512L45.5626 48.2156C45.2119 48.9487 45.0001 49.7588 45.0001 50.625C45.0001 53.7281 47.5238 56.25 50.6251 56.25C53.7263 56.25 56.2501 53.7281 56.2501 50.625C56.2501 47.5219 53.7263 45 50.6251 45C49.7897 45.0044 48.9661 45.1973 48.2157 45.5644L34.5263 31.8769H45.3451C45.7306 32.9702 46.4451 33.9175 47.3905 34.5886C48.3358 35.2596 49.4657 35.6217 50.6251 35.625ZM50.6251 28.125C51.1223 28.125 51.5993 28.3225 51.9509 28.6742C52.3025 29.0258 52.5001 29.5027 52.5001 30C52.5001 30.4973 52.3025 30.9742 51.9509 31.3258C51.5993 31.6775 51.1223 31.875 50.6251 31.875C50.1278 31.875 49.6509 31.6775 49.2992 31.3258C48.9476 30.9742 48.7501 30.4973 48.7501 30C48.7501 29.5027 48.9476 29.0258 49.2992 28.6742C49.6509 28.3225 50.1278 28.125 50.6251 28.125ZM50.6251 7.5C51.1078 7.5216 51.5637 7.72858 51.8977 8.07784C52.2317 8.42711 52.4181 8.89174 52.4181 9.375C52.4181 9.85826 52.2317 10.3229 51.8977 10.6722C51.5637 11.0214 51.1078 11.2284 50.6251 11.25C50.1278 11.25 49.6509 11.0525 49.2992 10.7008C48.9476 10.3492 48.7501 9.87228 48.7501 9.375C48.7501 8.87772 48.9476 8.40081 49.2992 8.04918C49.6509 7.69754 50.1278 7.5 50.6251 7.5ZM26.2501 22.5H22.5001V26.25H26.2501V33.75H22.5001C19.3988 33.75 16.8751 36.2738 16.8751 39.375V43.125H20.6251V39.375C20.6251 38.8777 20.8226 38.4008 21.1742 38.0492C21.5259 37.6975 22.0028 37.5 22.5001 37.5H26.2501V45C26.2501 47.0681 24.5682 48.75 22.5001 48.75H20.6251C14.0251 48.75 8.56506 43.8506 7.65006 37.5H11.2501V33.75H7.50006V26.25H13.1251C16.2263 26.25 18.7501 23.7262 18.7501 20.625V16.875H15.0001V20.625C15.0001 21.1223 14.8025 21.5992 14.4509 21.9508C14.0993 22.3025 13.6223 22.5 13.1251 22.5H7.65006C8.56506 16.1494 14.0251 11.25 20.6251 11.25H22.5001C24.5682 11.25 26.2501 12.9338 26.2501 15V22.5ZM52.5001 50.625C52.4785 51.1078 52.2715 51.5636 51.9222 51.8976C51.573 52.2316 51.1083 52.418 50.6251 52.418C50.1418 52.418 49.6772 52.2316 49.3279 51.8976C48.9786 51.5636 48.7717 51.1078 48.7501 50.625C48.7501 49.5919 49.5919 48.75 50.6251 48.75C51.6582 48.75 52.5001 49.5919 52.5001 50.625Z" fill="#000DA0"/>
</svg>
