<svg width="16" height="16" viewBox="0 0 16 16" fill="none" xmlns="http://www.w3.org/2000/svg">
<path d="M1.8 11.25C1.3 10.25 1 9.15 1 8C1 4.15 4.15 1 8 1V2C4.7 2 2 4.7 2 8C2 9 2.25 9.9 2.7 10.75L1.8 11.25ZM14 8C14 11.3 11.3 14 8 14C6.55 14 5.2 13.5 4.15 12.6L7 9.75L6.3 9L3.05 12.25C2.85 12.45 2.85 12.75 3.05 12.95C4.35 14.25 6.15 15 8 15C11.85 15 15 11.85 15 8H14Z" fill="white"/>
<path d="M9.00001 12.5C8.95001 12.5 8.85001 12.5 8.80001 12.45C8.65001 12.4 8.50001 12.25 8.50001 12.05L8.15001 9.55L9.15001 9.4L9.35001 11.05L10.45 10.2V7.5C10.45 7.35 10.5 7.25 10.6 7.15L12.2 5.55C12.65 5.1 12.95 4.45 12.95 3.8V3H12.2C11.55 3 10.9 3.25 10.45 3.75L8.85001 5.35C8.75001 5.45 8.65001 5.5 8.50001 5.5H5.75001L4.90001 6.6L6.55001 6.8L6.40001 7.8L3.90001 7.45C3.70001 7.45 3.55001 7.3 3.50001 7.15C3.45001 7 3.45001 6.8 3.55001 6.65L5.05001 4.65C5.20001 4.55 5.35001 4.5 5.50001 4.5H8.30001L9.80001 3C10.45 2.35 11.35 2 12.25 2H13C13.55 2 14 2.45 14 3V3.75C14 4.7 13.65 5.55 13 6.2L11.5 7.7V10.5C11.5 10.65 11.45 10.8 11.3 10.9L9.30001 12.4C9.20001 12.45 9.10001 12.5 9.00001 12.5Z" fill="white"/>
</svg>
