<svg width="16" height="16" viewBox="0 0 16 16" fill="none" xmlns="http://www.w3.org/2000/svg">
<path d="M11.7667 4.23366C11.2732 3.73695 10.6864 3.3428 10.0399 3.07392C9.39344 2.80503 8.70016 2.66674 8.00001 2.66699C5.05334 2.66699 2.67334 5.05366 2.67334 8.00033C2.67334 10.947 5.05334 13.3337 8.00001 13.3337C10.4867 13.3337 12.56 11.6337 13.1533 9.33366H11.7667C11.4921 10.1133 10.9822 10.7886 10.3076 11.2662C9.6329 11.7439 8.82664 12.0004 8.00001 12.0003C5.79334 12.0003 4.00001 10.207 4.00001 8.00033C4.00001 5.79366 5.79334 4.00033 8.00001 4.00033C9.10667 4.00033 10.0933 4.46033 10.8133 5.18699L8.66667 7.33366H13.3333V2.66699L11.7667 4.23366Z" fill="black"/>
</svg>
