<svg width="16" height="16" viewBox="0 0 16 16" fill="none" xmlns="http://www.w3.org/2000/svg">
<path d="M7.00002 11.4335L9.65335 9.91346C10.1 9.66013 10.1 9.01346 9.65335 8.75346L7.00002 7.23346C6.55335 6.98013 6.00002 7.3068 6.00002 7.81346V10.8468C6.00002 11.3601 6.55335 11.6868 7.00002 11.4335ZM14 4.00013H8.94002L10.9 2.04013C11.0334 1.9068 11.0334 1.70013 10.9 1.5668C10.7667 1.43346 10.56 1.43346 10.4267 1.5668L8.00002 3.99346L5.57335 1.5668C5.44002 1.43346 5.23335 1.43346 5.10002 1.5668C4.96669 1.70013 4.96669 1.9068 5.10002 2.04013L7.06002 4.00013H2.00002C1.6464 4.00013 1.30726 4.14061 1.05721 4.39065C0.807163 4.6407 0.666687 4.97984 0.666687 5.33346V13.3335C0.666687 14.0668 1.26669 14.6668 2.00002 14.6668H14C14.7334 14.6668 15.3334 14.0668 15.3334 13.3335V5.33346C15.3334 4.97984 15.1929 4.6407 14.9428 4.39065C14.6928 4.14061 14.3536 4.00013 14 4.00013ZM13.3334 13.3335H2.66669C2.30002 13.3335 2.00002 13.0335 2.00002 12.6668V6.00013C2.00002 5.63346 2.30002 5.33346 2.66669 5.33346H13.3334C13.7 5.33346 14 5.63346 14 6.00013V12.6668C14 13.0335 13.7 13.3335 13.3334 13.3335Z" fill="white"/>
</svg>
