<svg width="16" height="16" viewBox="0 0 16 16" fill="none" xmlns="http://www.w3.org/2000/svg">
<path d="M7.99337 1.33301C4.31337 1.33301 1.33337 4.31967 1.33337 7.99967C1.33337 11.6797 4.31337 14.6663 7.99337 14.6663C11.68 14.6663 14.6667 11.6797 14.6667 7.99967C14.6667 4.31967 11.68 1.33301 7.99337 1.33301ZM12.6134 5.33301H10.6467C10.4377 4.50741 10.1288 3.71041 9.72671 2.95967C10.9428 3.37834 11.9675 4.22082 12.6134 5.33301ZM8.00004 2.69301C8.55337 3.49301 8.98671 4.37967 9.27337 5.33301H6.72671C7.01337 4.37967 7.44671 3.49301 8.00004 2.69301ZM2.84004 9.33301C2.73337 8.90634 2.66671 8.45967 2.66671 7.99967C2.66671 7.53967 2.73337 7.09301 2.84004 6.66634H5.09337C5.04004 7.10634 5.00004 7.54634 5.00004 7.99967C5.00004 8.45301 5.04004 8.89301 5.09337 9.33301H2.84004ZM3.38671 10.6663H5.35337C5.56671 11.4997 5.87337 12.2997 6.27337 13.0397C5.05641 12.6226 4.0312 11.7797 3.38671 10.6663ZM5.35337 5.33301H3.38671C4.0312 4.21964 5.05641 3.37675 6.27337 2.95967C5.8713 3.71041 5.56234 4.50741 5.35337 5.33301ZM8.00004 13.3063C7.44671 12.5063 7.01337 11.6197 6.72671 10.6663H9.27337C8.98671 11.6197 8.55337 12.5063 8.00004 13.3063ZM9.56004 9.33301H6.44004C6.38004 8.89301 6.33337 8.45301 6.33337 7.99967C6.33337 7.54634 6.38004 7.09967 6.44004 6.66634H9.56004C9.62004 7.09967 9.66671 7.54634 9.66671 7.99967C9.66671 8.45301 9.62004 8.89301 9.56004 9.33301ZM9.72671 13.0397C10.1267 12.2997 10.4334 11.4997 10.6467 10.6663H12.6134C11.9675 11.7785 10.9428 12.621 9.72671 13.0397ZM10.9067 9.33301C10.96 8.89301 11 8.45301 11 7.99967C11 7.54634 10.96 7.10634 10.9067 6.66634H13.16C13.2667 7.09301 13.3334 7.53967 13.3334 7.99967C13.3334 8.45967 13.2667 8.90634 13.16 9.33301H10.9067Z" fill="#3900B3"/>
</svg>
