<svg width="21" height="21" viewBox="0 0 21 21" fill="none" xmlns="http://www.w3.org/2000/svg">
<g clip-path="url(#clip0_97_329)">
<path d="M9.18751 15.0059L12.67 13.0109C13.2563 12.6784 13.2563 11.8296 12.67 11.4884L9.18751 9.49336C8.60126 9.16086 7.87501 9.58961 7.87501 10.2546V14.2359C7.87501 14.9096 8.60126 15.3384 9.18751 15.0059ZM18.375 5.24961H11.7338L14.3063 2.6771C14.4813 2.5021 14.4813 2.23085 14.3063 2.05585C14.1313 1.88085 13.86 1.88085 13.685 2.05585L10.5 5.24086L7.31501 2.05585C7.14 1.88085 6.86876 1.88085 6.69376 2.05585C6.51876 2.23085 6.51876 2.5021 6.69376 2.6771L9.26626 5.24961H2.625C2.16087 5.24961 1.71575 5.43398 1.38757 5.76217C1.05938 6.09036 0.875003 6.53548 0.875003 6.99961V17.4996C0.875003 18.4621 1.6625 19.2496 2.625 19.2496H18.375C19.3375 19.2496 20.125 18.4621 20.125 17.4996V6.99961C20.125 6.53548 19.9406 6.09036 19.6124 5.76217C19.2843 5.43398 18.8391 5.24961 18.375 5.24961ZM17.5 17.4996H3.5C3.01875 17.4996 2.625 17.1059 2.625 16.6246V7.87461C2.625 7.39336 3.01875 6.99961 3.5 6.99961H17.5C17.9813 6.99961 18.375 7.39336 18.375 7.87461V16.6246C18.375 17.1059 17.9813 17.4996 17.5 17.4996Z" fill="white"/>
</g>
<defs>
<clipPath id="clip0_97_329">
<rect width="20.7678" height="20.7678" fill="white" transform="scale(1.01118)"/>
</clipPath>
</defs>
</svg>
