<svg width="24" height="24" viewBox="0 0 24 24" fill="none" xmlns="http://www.w3.org/2000/svg">
<path d="M19.0701 4.93L17.6601 6.34C18.4027 7.0835 18.9916 7.96604 19.3932 8.9372C19.7947 9.90836 20.0009 10.9491 20.0001 12C20.0001 16.42 16.4201 20 12.0001 20C7.58006 20 4.00006 16.42 4.00006 12C4.00006 7.92 7.05006 4.56 11.0001 4.07V6.09C8.16006 6.57 6.00006 9.03 6.00006 12C6.00006 15.31 8.69006 18 12.0001 18C15.3101 18 18.0001 15.31 18.0001 12C18.0001 10.34 17.3301 8.84 16.2401 7.76L14.8301 9.17C15.5501 9.9 16.0001 10.9 16.0001 12C16.0001 14.21 14.2101 16 12.0001 16C9.79006 16 8.00006 14.21 8.00006 12C8.00006 10.14 9.28006 8.59 11.0001 8.14V10.28C10.4001 10.63 10.0001 11.26 10.0001 12C10.0001 13.1 10.9001 14 12.0001 14C13.1001 14 14.0001 13.1 14.0001 12C14.0001 11.26 13.6001 10.62 13.0001 10.28V2H12.0001C6.48006 2 2.00006 6.48 2.00006 12C2.00006 17.52 6.48006 22 12.0001 22C17.5201 22 22.0001 17.52 22.0001 12C22.0001 9.24 20.8801 6.74 19.0701 4.93Z" fill="#0A0319"/>
</svg>
