<svg width="13" height="13" viewBox="0 0 13 13" fill="none" xmlns="http://www.w3.org/2000/svg">
<path d="M10.9687 7.71879C11.6407 7.71879 12.1875 7.17198 12.1875 6.50004C12.1875 5.82811 11.6407 5.2813 10.9687 5.2813C10.7175 5.28204 10.4726 5.36054 10.2678 5.50602C10.063 5.6515 9.90819 5.85682 9.82473 6.09379H7.48067L10.4463 3.12817C10.6055 3.20414 10.781 3.25005 10.9687 3.25005C11.6407 3.25005 12.1875 2.70324 12.1875 2.0313C12.1875 1.35936 11.6407 0.812552 10.9687 0.812552C10.2968 0.812552 9.74998 1.35936 9.74998 2.0313C9.74998 2.21899 9.79629 2.39449 9.87185 2.55333L6.49998 5.92561V3.25005C6.49998 2.80236 6.86439 2.43755 7.31248 2.43755H8.12498V1.62505H7.31248C6.82498 1.62505 6.39192 1.84564 6.09373 2.18649C5.94262 2.01111 5.75561 1.87023 5.54535 1.77337C5.33509 1.67651 5.10648 1.62593 4.87498 1.62505H4.46873C2.45292 1.62505 0.812488 3.26508 0.812488 5.2813V7.71879C0.812488 9.73501 2.45292 11.375 4.46873 11.375H4.87498C5.36248 11.375 5.79554 11.1549 6.09373 10.8136C6.39192 11.1549 6.82498 11.375 7.31248 11.375H8.12498V10.5625H7.31248C6.86439 10.5625 6.49998 10.1981 6.49998 9.75004V7.07448L9.87185 10.4468C9.79588 10.6056 9.74998 10.7811 9.74998 10.9688C9.74998 11.6411 10.2968 12.1875 10.9687 12.1875C11.6407 12.1875 12.1875 11.6411 12.1875 10.9688C12.1875 10.2964 11.6407 9.75004 10.9687 9.75004C10.7877 9.75099 10.6093 9.79279 10.4467 9.87232L7.48067 6.9067H9.82473C9.90826 7.14359 10.0631 7.34883 10.2679 7.49423C10.4727 7.63963 10.7175 7.71808 10.9687 7.71879ZM10.9687 6.09379C11.0765 6.09379 11.1798 6.1366 11.256 6.21278C11.3322 6.28897 11.375 6.3923 11.375 6.50004C11.375 6.60779 11.3322 6.71112 11.256 6.78731C11.1798 6.86349 11.0765 6.90629 10.9687 6.90629C10.861 6.90629 10.7576 6.86349 10.6815 6.78731C10.6053 6.71112 10.5625 6.60779 10.5625 6.50004C10.5625 6.3923 10.6053 6.28897 10.6815 6.21278C10.7576 6.1366 10.861 6.09379 10.9687 6.09379ZM10.9687 1.62505C11.0733 1.62973 11.1721 1.67458 11.2445 1.75025C11.3168 1.82592 11.3572 1.92659 11.3572 2.0313C11.3572 2.13601 11.3168 2.23668 11.2445 2.31235C11.1721 2.38803 11.0733 2.43287 10.9687 2.43755C10.861 2.43755 10.7576 2.39475 10.6815 2.31856C10.6053 2.24238 10.5625 2.13904 10.5625 2.0313C10.5625 1.92356 10.6053 1.82023 10.6815 1.74404C10.7576 1.66785 10.861 1.62505 10.9687 1.62505ZM5.68748 4.87505H4.87498V5.68755H5.68748V7.31254H4.87498C4.20305 7.31254 3.65623 7.85935 3.65623 8.53129V9.34379H4.46873V8.53129C4.46873 8.42355 4.51153 8.32022 4.58772 8.24403C4.66391 8.16784 4.76724 8.12504 4.87498 8.12504H5.68748V9.75004C5.68748 10.1981 5.32308 10.5625 4.87498 10.5625H4.46873C3.03874 10.5625 1.85574 9.50101 1.65749 8.12504H2.43749V7.31254H1.62499V5.68755H2.84374C3.51567 5.68755 4.06248 5.14073 4.06248 4.4688V3.6563H3.24998V4.4688C3.24998 4.57654 3.20718 4.67987 3.131 4.75606C3.05481 4.83225 2.95148 4.87505 2.84374 4.87505H1.65749C1.85574 3.49908 3.03874 2.43755 4.46873 2.43755H4.87498C5.32308 2.43755 5.68748 2.80236 5.68748 3.25005V4.87505ZM11.375 10.9688C11.3703 11.0734 11.3254 11.1722 11.2498 11.2445C11.1741 11.3169 11.0734 11.3573 10.9687 11.3573C10.864 11.3573 10.7633 11.3169 10.6877 11.2445C10.612 11.1722 10.5672 11.0734 10.5625 10.9688C10.5625 10.7449 10.7449 10.5625 10.9687 10.5625C11.1926 10.5625 11.375 10.7449 11.375 10.9688Z" fill="white"/>
</svg>
