<svg width="25" height="24" viewBox="0 0 25 24" fill="none" xmlns="http://www.w3.org/2000/svg">
<path d="M20.75 14.25C21.9905 14.25 23 13.2405 23 12C23 10.7595 21.9905 9.75 20.75 9.75C20.2862 9.75138 19.8341 9.89631 19.456 10.1649C19.0778 10.4335 18.7921 10.8125 18.638 11.25H14.3105L19.7855 5.775C20.0795 5.91525 20.4035 6 20.75 6C21.9905 6 23 4.9905 23 3.75C23 2.5095 21.9905 1.5 20.75 1.5C19.5095 1.5 18.5 2.5095 18.5 3.75C18.5 4.0965 18.5855 4.4205 18.725 4.71375L12.5 10.9395V6C12.5 5.1735 13.1727 4.5 14 4.5H15.5V3H14C13.1 3 12.3005 3.40725 11.75 4.0365C11.471 3.71273 11.1258 3.45264 10.7376 3.27382C10.3494 3.095 9.92738 3.00162 9.5 3H8.75C5.0285 3 2 6.02775 2 9.75V14.25C2 17.9722 5.0285 21 8.75 21H9.5C10.4 21 11.1995 20.5935 11.75 19.9635C12.3005 20.5935 13.1 21 14 21H15.5V19.5H14C13.1727 19.5 12.5 18.8272 12.5 18V13.0605L18.725 19.2863C18.5847 19.5795 18.5 19.9035 18.5 20.25C18.5 21.4912 19.5095 22.5 20.75 22.5C21.9905 22.5 23 21.4912 23 20.25C23 19.0088 21.9905 18 20.75 18C20.4159 18.0018 20.0864 18.0789 19.7863 18.2257L14.3105 12.7507H18.638C18.7922 13.1881 19.078 13.567 19.4562 13.8354C19.8343 14.1039 20.2863 14.2487 20.75 14.25ZM20.75 11.25C20.9489 11.25 21.1397 11.329 21.2803 11.4697C21.421 11.6103 21.5 11.8011 21.5 12C21.5 12.1989 21.421 12.3897 21.2803 12.5303C21.1397 12.671 20.9489 12.75 20.75 12.75C20.5511 12.75 20.3603 12.671 20.2197 12.5303C20.079 12.3897 20 12.1989 20 12C20 11.8011 20.079 11.6103 20.2197 11.4697C20.3603 11.329 20.5511 11.25 20.75 11.25ZM20.75 3C20.9431 3.00864 21.1254 3.09143 21.259 3.23114C21.3926 3.37084 21.4672 3.5567 21.4672 3.75C21.4672 3.9433 21.3926 4.12916 21.259 4.26886C21.1254 4.40857 20.9431 4.49136 20.75 4.5C20.5511 4.5 20.3603 4.42098 20.2197 4.28033C20.079 4.13968 20 3.94891 20 3.75C20 3.55109 20.079 3.36032 20.2197 3.21967C20.3603 3.07902 20.5511 3 20.75 3ZM11 9H9.5V10.5H11V13.5H9.5C8.2595 13.5 7.25 14.5095 7.25 15.75V17.25H8.75V15.75C8.75 15.5511 8.82902 15.3603 8.96967 15.2197C9.11032 15.079 9.30109 15 9.5 15H11V18C11 18.8272 10.3273 19.5 9.5 19.5H8.75C6.11 19.5 3.926 17.5403 3.56 15H5V13.5H3.5V10.5H5.75C6.9905 10.5 8 9.4905 8 8.25V6.75H6.5V8.25C6.5 8.44891 6.42098 8.63968 6.28033 8.78033C6.13968 8.92098 5.94891 9 5.75 9H3.56C3.926 6.45975 6.11 4.5 8.75 4.5H9.5C10.3273 4.5 11 5.1735 11 6V9ZM21.5 20.25C21.4914 20.4431 21.4086 20.6254 21.2689 20.759C21.1292 20.8926 20.9433 20.9672 20.75 20.9672C20.5567 20.9672 20.3708 20.8926 20.2311 20.759C20.0914 20.6254 20.0086 20.4431 20 20.25C20 19.8368 20.3368 19.5 20.75 19.5C21.1632 19.5 21.5 19.8368 21.5 20.25Z" fill="#3900B3"/>
</svg>
